<?xml version="1.0" encoding="UTF-8"?>
<svg version="1.1" xmlns="http://www.w3.org/2000/svg" width="385" height="110">
<path d="M0 0 C127.05 0 254.1 0 385 0 C385 36.3 385 72.6 385 110 C257.95 110 130.9 110 0 110 C0 73.7 0 37.4 0 0 Z " fill="#FDFDFD" transform="translate(0,0)"/>
<path d="M0 0 C1.34362885 0.00031689 2.68728332 0.01162897 4.03076172 0.03173828 C4.73820526 0.03456818 5.4456488 0.03739807 6.17453003 0.04031372 C8.43667432 0.05151941 10.69842437 0.07662399 12.96044922 0.10205078 C14.49299559 0.11208011 16.02554816 0.12120604 17.55810547 0.12939453 C21.31737223 0.15145992 25.07634386 0.18599183 28.83544922 0.22705078 C30.5011102 3.55837275 29.98264474 7.29649612 29.98071289 10.95947266 C29.9840715 11.86363419 29.98743011 12.76779572 29.9908905 13.69935608 C30.00041589 16.69818482 30.0023443 19.69695784 30.00341797 22.69580078 C30.00662904 24.77323429 30.00999299 26.85066756 30.01350403 28.92810059 C30.01949899 33.28605677 30.02134351 37.64399311 30.02075195 42.00195312 C30.02065022 47.59779746 30.03431273 53.19351523 30.05152416 58.78932953 C30.06261808 63.08030792 30.06467198 67.37125544 30.06414223 71.6622467 C30.06532589 73.72600237 30.06976915 75.78975875 30.07747459 77.85350037 C30.08722361 80.73396799 30.08441688 83.61415722 30.07836914 86.49462891 C30.08398865 87.35391495 30.08960815 88.21320099 30.09539795 89.098526 C30.06376562 94.99873438 30.06376562 94.99873438 27.83544922 97.22705078 C24.79443359 97.48583984 24.79443359 97.48583984 20.92919922 97.49267578 C19.90844299 97.49554596 19.90844299 97.49554596 18.86706543 97.49847412 C17.42797476 97.49983541 15.98887178 97.49614283 14.54980469 97.48779297 C12.34395835 97.47709206 10.13892641 97.4876895 7.93310547 97.50048828 C6.53596825 97.49916668 5.13883154 97.49660426 3.74169922 97.49267578 C2.46617188 97.49041992 1.19064453 97.48816406 -0.12353516 97.48583984 C-3.16455078 97.22705078 -3.16455078 97.22705078 -5.16455078 95.22705078 C-5.3633748 92.2852581 -5.43720532 89.43757729 -5.42333984 86.49462891 C-5.4285968 85.13838661 -5.4285968 85.13838661 -5.43395996 83.75474548 C-5.442787 80.75585326 -5.43692469 77.75719554 -5.43017578 74.75830078 C-5.43152215 72.68086705 -5.43346245 70.60343363 -5.43597412 68.52600098 C-5.4389267 64.16801967 -5.43462342 59.81012024 -5.42529297 55.45214844 C-5.41389839 49.85629001 -5.42045714 44.26062342 -5.4324379 38.66477203 C-5.43965287 34.37378485 -5.43737024 30.0828434 -5.43218231 25.79185486 C-5.43084481 23.72810341 -5.43249703 21.66434785 -5.43714142 19.6006012 C-5.44220068 16.72011254 -5.43450487 13.83993783 -5.42333984 10.95947266 C-5.42738831 10.10018661 -5.43143677 9.24090057 -5.43560791 8.35557556 C-5.37815937 0.38587318 -5.37815937 0.38587318 0 0 Z " fill="#EF2447" transform="translate(10.16455078125,6.77294921875)"/>
<path d="M0 0 C1.21429688 0.00322266 2.42859375 0.00644531 3.6796875 0.00976562 C5.50113281 -0.0144043 5.50113281 -0.0144043 7.359375 -0.0390625 C8.51695313 -0.03970703 9.67453125 -0.04035156 10.8671875 -0.04101562 C12.46626953 -0.04548706 12.46626953 -0.04548706 14.09765625 -0.05004883 C14.94972656 0.07281494 15.80179688 0.19567871 16.6796875 0.32226562 C19.28850302 4.2354889 18.96018986 7.53720326 18.93847656 12.07641602 C18.9419812 12.97097 18.94548584 13.86552399 18.94909668 14.78718567 C18.95790934 17.74817634 18.95206695 20.70892871 18.9453125 23.66992188 C18.94665916 25.72350612 18.94859971 27.77709006 18.95111084 29.83067322 C18.95406137 34.13560012 18.94976625 38.44044406 18.94042969 42.74536133 C18.92902806 48.2728106 18.93559961 53.80006581 18.94757462 59.32750797 C18.95478899 63.56788098 18.95250736 67.8082077 18.94731903 72.04858208 C18.94598173 74.08721375 18.94763303 76.12584958 18.95227814 78.16447639 C18.9573372 81.00893476 18.94964222 83.85307518 18.93847656 86.69750977 C18.94252502 87.54587402 18.94657349 88.39423828 18.95074463 89.26831055 C18.9082169 95.09373623 18.9082169 95.09373623 16.6796875 97.32226562 C14.09765625 97.58105469 14.09765625 97.58105469 10.8671875 97.58789062 C9.70960937 97.59046875 8.55203125 97.59304687 7.359375 97.59570312 C6.14507812 97.58796875 4.93078125 97.58023438 3.6796875 97.57226562 C2.46539062 97.58 1.25109375 97.58773437 0 97.59570312 C-1.73636719 97.59183594 -1.73636719 97.59183594 -3.5078125 97.58789062 C-5.10689453 97.58450684 -5.10689453 97.58450684 -6.73828125 97.58105469 C-9.3203125 97.32226562 -9.3203125 97.32226562 -11.3203125 95.32226562 C-11.51913652 92.38047295 -11.59296704 89.53279213 -11.57910156 86.58984375 C-11.58435852 85.23360146 -11.58435852 85.23360146 -11.58972168 83.84996033 C-11.59854872 80.85106811 -11.59268641 77.85241039 -11.5859375 74.85351562 C-11.58728387 72.77608189 -11.58922417 70.69864847 -11.59173584 68.62121582 C-11.59468842 64.26323452 -11.59038514 59.90533509 -11.58105469 55.54736328 C-11.56966011 49.95150485 -11.57621886 44.35583826 -11.58819962 38.75998688 C-11.59541458 34.46899969 -11.59313196 30.17805824 -11.58794403 25.8870697 C-11.58660653 23.82331825 -11.58825875 21.7595627 -11.59290314 19.69581604 C-11.5979624 16.81532739 -11.59026659 13.93515267 -11.57910156 11.0546875 C-11.58315002 10.19540146 -11.58719849 9.33611542 -11.59136963 8.45079041 C-11.52555573 -0.67941959 -8.034526 0.04920923 0 0 Z " fill="#7174EE" transform="translate(51.3203125,6.677734375)"/>
<path d="M0 0 C1.98084702 4.30812168 2.72864261 8.63979032 3.42041016 13.29101562 C3.54749863 14.11276779 3.6745871 14.93451996 3.80552673 15.78117371 C4.22264241 18.48866002 4.63104223 21.19737928 5.0390625 23.90625 C5.32724755 25.79291083 5.6158585 27.67950666 5.90487671 29.56604004 C6.50872903 33.51628058 7.10845304 37.46711861 7.70507812 41.41845703 C8.46955282 46.48018919 9.24265858 51.54055551 10.01865578 56.60053253 C10.6151938 60.49485798 11.20796176 64.38974972 11.79951096 68.28483582 C12.08321412 70.15088184 12.36789808 72.01677902 12.65358353 73.88252258 C13.05222227 76.4907979 13.44597667 79.0997645 13.83837891 81.70898438 C13.95679642 82.47796555 14.07521393 83.24694672 14.19721985 84.03923035 C14.74608872 87.72357331 15.13652818 91.27316509 15 95 C11.46584949 97.09757561 8.10768301 97.58103729 4.0625 98.125 C2.85722656 98.29257813 1.65195313 98.46015625 0.41015625 98.6328125 C-2.43553627 98.93922155 -5.14348827 99.07588456 -8 99 C-9.98084702 94.69187832 -10.72864261 90.36020968 -11.42041016 85.70898438 C-11.54749863 84.88723221 -11.6745871 84.06548004 -11.80552673 83.21882629 C-12.22264241 80.51133998 -12.63104223 77.80262072 -13.0390625 75.09375 C-13.32724755 73.20708917 -13.6158585 71.32049334 -13.90487671 69.43395996 C-14.50872903 65.48371942 -15.10845304 61.53288139 -15.70507812 57.58154297 C-16.46955282 52.51981081 -17.24265858 47.45944449 -18.01865578 42.39946747 C-18.6151938 38.50514202 -19.20796176 34.61025028 -19.79951096 30.71516418 C-20.08321412 28.84911816 -20.36789808 26.98322098 -20.65358353 25.11747742 C-21.05222227 22.5092021 -21.44597667 19.9002355 -21.83837891 17.29101562 C-21.95679642 16.52203445 -22.07521393 15.75305328 -22.19721985 14.96076965 C-22.74608872 11.27642669 -23.13652818 7.72683491 -23 4 C-19.18511977 2.3060793 -15.62423434 1.48207188 -11.5 0.875 C-10.3965625 0.70742187 -9.293125 0.53984375 -8.15625 0.3671875 C-5.39581369 0.04604763 -2.77414373 -0.07245898 0 0 Z " fill="#F9BA27" transform="translate(92,6)"/>
<path d="M0 0 C3.031875 -0.061875 6.06375 -0.12375 9.1875 -0.1875 C10.60712036 -0.22846802 10.60712036 -0.22846802 12.05541992 -0.27026367 C16.84628681 -0.31755702 20.14384415 -0.19156787 24 3 C25.58873246 6.17746491 25.41026221 9.54012202 25 13 C23.5 15.5 23.5 15.5 22 17 C22.66 17.680625 23.32 18.36125 24 19.0625 C26.51930235 22.76272533 26.7066341 24.6031656 26 29 C23.8272578 31.63016161 22.05326212 33.47336894 19 35 C17.55151418 35.08342159 16.09929131 35.10732861 14.6484375 35.09765625 C13.49867432 35.09390991 13.49867432 35.09390991 12.32568359 35.09008789 C10.86509521 35.07643188 10.86509521 35.07643188 9.375 35.0625 C6.28125 35.041875 3.1875 35.02125 0 35 C0 23.45 0 11.9 0 0 Z " fill="#111018" transform="translate(180,37)"/>
<path d="M0 0 C3.3997343 2.5093277 5.1791643 4.97574681 6.625 8.9375 C7.27043388 14.19317586 6.41085549 17.46023224 3.625 21.9375 C0.6915572 25.32929324 -1.32985234 26.7127585 -5.86328125 27.2109375 C-14.43063991 27.51903062 -14.43063991 27.51903062 -17.9375 24.75 C-22.00074398 20.06164156 -22.84360324 16.25036973 -22.69140625 10.15234375 C-22.04761686 5.64581803 -19.55289834 2.97682207 -16.25 0.0625 C-10.8295385 -2.05855015 -5.49714292 -1.73058203 0 0 Z " fill="#111018" transform="translate(262.375,45.0625)"/>
<path d="M0 0 C3.3997343 2.5093277 5.1791643 4.97574681 6.625 8.9375 C7.27043388 14.19317586 6.41085549 17.46023224 3.625 21.9375 C0.6915572 25.32929324 -1.32985234 26.7127585 -5.86328125 27.2109375 C-14.43063991 27.51903062 -14.43063991 27.51903062 -17.9375 24.75 C-22.00074398 20.06164156 -22.84360324 16.25036973 -22.69140625 10.15234375 C-22.04761686 5.64581803 -19.55289834 2.97682207 -16.25 0.0625 C-10.8295385 -2.05855015 -5.49714292 -1.73058203 0 0 Z " fill="#111018" transform="translate(231.375,45.0625)"/>
<path d="M0 0 C4.60899048 1.76514529 6.74559823 4.65818919 9 9 C9 11.31 9 13.62 9 16 C2.07 16 -4.86 16 -12 16 C-11.01 17.65 -10.02 19.3 -9 21 C-6.95714939 21.60024521 -6.95714939 21.60024521 -4.8125 21.3125 C-3.554375 21.209375 -2.29625 21.10625 -1 21 C-0.67 20.34 -0.34 19.68 0 19 C2.64 19 5.28 19 8 19 C6.82191948 22.3529984 5.80593388 24.7552529 3 27 C-1.62880583 28.54293528 -6.16622785 28.49613497 -11 28 C-15.81323883 25.49310478 -17.38888843 22.08772075 -19 17 C-19.68381456 12.68863258 -19.32616103 9.61737623 -17.25 5.6875 C-12.06280462 -0.5083167 -7.83130404 -0.83906829 0 0 Z " fill="#121119" transform="translate(371,44)"/>
<path d="M0 0 C4.60899048 1.76514529 6.74559823 4.65818919 9 9 C9 11.31 9 13.62 9 16 C2.07 16 -4.86 16 -12 16 C-11.01 17.65 -10.02 19.3 -9 21 C-6.95714939 21.60024521 -6.95714939 21.60024521 -4.8125 21.3125 C-3.554375 21.209375 -2.29625 21.10625 -1 21 C-0.67 20.34 -0.34 19.68 0 19 C2.64 19 5.28 19 8 19 C6.82191948 22.3529984 5.80593388 24.7552529 3 27 C-1.62880583 28.54293528 -6.16622785 28.49613497 -11 28 C-15.81323883 25.49310478 -17.38888843 22.08772075 -19 17 C-19.68381456 12.68863258 -19.32616103 9.61737623 -17.25 5.6875 C-12.06280462 -0.5083167 -7.83130404 -0.83906829 0 0 Z " fill="#121119" transform="translate(341,44)"/>
<path d="M0 0 C2.31 0 4.62 0 7 0 C7.33 6.27 7.66 12.54 8 19 C9.134375 17.35 10.26875 15.7 11.4375 14 C15.21150652 9.20653912 15.21150652 9.20653912 18.53515625 8.3359375 C20.76757111 8.3713165 22.81615008 8.54503127 25 9 C19.50431034 16.54741379 19.50431034 16.54741379 16.5625 19.1875 C14.73056869 20.89053187 14.73056869 20.89053187 15.1171875 23.28515625 C16.25040194 26.77004136 18.03873771 28.61170077 20.5625 31.25 C25 35.92979719 25 35.92979719 25 37 C21.80217592 37.66621335 19.17767124 37.83236381 16 37 C12.807436 34.01188592 10.39117202 30.64865485 8 27 C7.67 30.3 7.34 33.6 7 37 C4.69 37 2.38 37 0 37 C0 24.79 0 12.58 0 0 Z " fill="#0E0D15" transform="translate(273,35)"/>
<path d="M0 0 C6.6 0 13.2 0 20 0 C20 1.65 20 3.3 20 5 C15.71 5 11.42 5 7 5 C7 7.97 7 10.94 7 14 C10.96 14 14.92 14 19 14 C19 15.98 19 17.96 19 20 C15.04 20 11.08 20 7 20 C7 22.97 7 25.94 7 29 C11.29 29 15.58 29 20 29 C20 30.98 20 32.96 20 35 C13.4 35 6.8 35 0 35 C0 23.45 0 11.9 0 0 Z " fill="#0E0D15" transform="translate(126,37)"/>
<path d="M0 0 C6.93 0 13.86 0 21 0 C21 6.75 21 6.75 18.59375 9.8671875 C18.09746094 10.52460937 17.60117187 11.18203125 17.08984375 11.859375 C16.56519531 12.52453125 16.04054688 13.1896875 15.5 13.875 C14.97535156 14.56335937 14.45070313 15.25171875 13.91015625 15.9609375 C12.61954739 17.65046182 11.31146086 19.32661001 10 21 C13.63 21.33 17.26 21.66 21 22 C21 23.98 21 25.96 21 28 C14.07 28 7.14 28 0 28 C0 21.25 0 21.25 2.40625 18.1328125 C2.90253906 17.47539063 3.39882813 16.81796875 3.91015625 16.140625 C4.43480469 15.47546875 4.95945312 14.8103125 5.5 14.125 C6.02464844 13.43664063 6.54929687 12.74828125 7.08984375 12.0390625 C8.38045261 10.34953818 9.68853914 8.67338999 11 7 C7.37 6.67 3.74 6.34 0 6 C0 4.02 0 2.04 0 0 Z " fill="#121118" transform="translate(299,44)"/>
<path d="M0 0 C2.375 0.9375 2.375 0.9375 4 3 C4.80596676 7.34235152 4.7638671 10.79544034 2.375 14.5625 C-0.74900668 16.45334615 -2.40988607 16.67314636 -6 16 C-9.16196359 13.25408425 -9.91691332 11.59199258 -10.5 7.4375 C-10 4 -10 4 -8.375 1.5625 C-5.30182885 -0.45932313 -3.61752119 -0.52755517 0 0 Z " fill="#F8F8F9" transform="translate(257,50)"/>
<path d="M0 0 C2.375 0.9375 2.375 0.9375 4 3 C4.80596676 7.34235152 4.7638671 10.79544034 2.375 14.5625 C-0.74900668 16.45334615 -2.40988607 16.67314636 -6 16 C-9.16196359 13.25408425 -9.91691332 11.59199258 -10.5 7.4375 C-10 4 -10 4 -8.375 1.5625 C-5.30182885 -0.45932313 -3.61752119 -0.52755517 0 0 Z " fill="#F8F8F9" transform="translate(226,50)"/>
<path d="M0 0 C7.26 0 14.52 0 22 0 C22 1.98 22 3.96 22 6 C14.74 6 7.48 6 0 6 C0 4.02 0 2.04 0 0 Z " fill="#101017" transform="translate(151,51)"/>
<path d="M0 0 C1.62463842 -0.05395478 3.24978541 -0.09277195 4.875 -0.125 C5.77992188 -0.14820313 6.68484375 -0.17140625 7.6171875 -0.1953125 C10 0 10 0 12 2 C12.25 4.5 12.25 4.5 12 7 C10 9 10 9 7.6171875 9.1953125 C6.71226562 9.17210938 5.80734375 9.14890625 4.875 9.125 C3.50988281 9.09792969 3.50988281 9.09792969 2.1171875 9.0703125 C1.41851562 9.04710938 0.71984375 9.02390625 0 9 C0 6.03 0 3.06 0 0 Z " fill="#FBFBFC" transform="translate(187,57)"/>
<path d="M0 0 C1.64574566 -0.02688151 3.29161413 -0.04634123 4.9375 -0.0625 C5.85402344 -0.07410156 6.77054688 -0.08570313 7.71484375 -0.09765625 C10 0 10 0 11 1 C11.1875 3.4375 11.1875 3.4375 11 6 C9 8 9 8 6.8359375 8.1953125 C5.61777344 8.16050781 5.61777344 8.16050781 4.375 8.125 C3.55773437 8.10695313 2.74046875 8.08890625 1.8984375 8.0703125 C1.27195313 8.04710937 0.64546875 8.02390625 0 8 C0 5.36 0 2.72 0 0 Z " fill="#FCFCFC" transform="translate(187,43)"/>
<path d="M0 0 C2.9375 0.75 2.9375 0.75 4.9375 2.75 C4.9375 3.74 4.9375 4.73 4.9375 5.75 C0.9775 5.75 -2.9825 5.75 -7.0625 5.75 C-5.87466157 0.99864628 -5.02172468 -0.40993671 0 0 Z " fill="#F2F2F2" transform="translate(367.0625,49.25)"/>
<path d="M0 0 C2.9375 0.75 2.9375 0.75 4.9375 2.75 C4.9375 3.74 4.9375 4.73 4.9375 5.75 C0.9775 5.75 -2.9825 5.75 -7.0625 5.75 C-5.87466157 0.99864628 -5.02172468 -0.40993671 0 0 Z " fill="#F2F2F2" transform="translate(337.0625,49.25)"/>
</svg>
